<?xml version="1.0" encoding="UTF-8"?>
<svg id="Warstwa_2" data-name="Warstwa 2" xmlns="http://www.w3.org/2000/svg" viewBox="0 0 383.28 375.89">
  <defs>
    <style>
      .cls-1 {
        fill: #98cfca;
      }
    </style>
  </defs>
  <g id="Warstwa_1-2" data-name="Warstwa 1">
    <g>
      <path class="cls-1" d="m383.28,160.98c-1.55,3.79-.95,7.86-1.34,11.77-2.19,22.02-6.66,43.64-10.98,65.29-3.84,19.21-7.9,38.39-9.14,57.99-1.25,19.66.55,38.78,11.51,55.99,1.85,2.91,1.06,5.88-1.63,7.41-2.65,1.51-5.31.72-7.27-2.39-6.26-9.92-10.03-20.75-11.8-32.32-2.88-18.84-.84-37.47,2.09-56.09,3.31-21.03,8.23-41.75,11.92-62.71,3.87-21.95,6.89-44.02,6.11-66.38-1.41-40.37-15.2-75.78-43.28-105.13-6.8-7.11-8.76-15-7.04-24.29.23-1.21.16-2.48.25-3.72.21-2.8,1.95-4.34,4.5-4.69,2.46-.34,4.29.87,5.24,3.29.95,2.43.78,4.93.31,7.36-1.16,5.95.34,10.7,4.65,15.25,19.35,20.41,33.11,44.08,40.27,71.39,2.54,9.7,4.32,19.56,4.88,29.6.06,1.11-.03,2.26.75,3.2v29.19Z"/>
      <path class="cls-1" d="m79.1,375.88c-23.83,0-47.65,0-71.48,0-6.22,0-7.63-1.47-7.6-7.73.02-5.99,0-11.98-.02-17.96-.03-6.02,1.31-7.32,7.47-7.41,5.65-.08,5.26,1.13,5.29-5.46.04-9.03,5.39-15.8,14.31-17.37,2.58-.45,3.06-1.41,2.9-3.55-.08-.99,0-1.99,0-2.99,0-101.79,0-203.59,0-305.38,0-6.32,1.57-7.9,7.88-7.9,27.57,0,55.14,0,82.7.02,6.56,0,8.2,1.65,8.2,8.09,0,11.35.12,22.71-.08,34.05-.05,2.9.77,3.48,3.52,3.47,24.57-.1,49.15-.06,73.73-.05,5.69,0,7.39,1.63,7.39,7.24.02,19.46.03,38.92.01,58.38,0,4.78-2.01,6.81-6.8,6.88-3.99.06-7.98.02-11.98,0-6.16-.03-7.87-1.78-7.87-8.1,0-6.36-.06-12.73.1-19.08.06-2.51-.58-3.52-3.3-3.49-10.98.14-21.96.1-32.93.03-1.81-.01-2.7.24-2.68,2.38.09,11.6.11,23.2,0,34.8-.03,2.99,1.81,2.7,3.7,2.7,14.22,0,28.44-.01,42.66,0,1.37,0,2.77-.07,4.1.16,4.79.81,6.31,5.12,3.14,8.88-4.1,4.86-8.32,9.62-12.38,14.51-1.92,2.32-4.23,3.2-7.19,3.18-10.23-.08-20.46.06-30.69-.09-2.67-.04-3.43.88-3.41,3.39.08,14.72.12,29.44,0,44.16-.02,3,1.06,3.69,3.9,3.64,10.1-.17,20.21.02,30.31-.12,3.18-.04,5.41,1.12,7.37,3.52,3.71,4.54,7.53,8.98,11.41,13.37,1.76,1.98,3.14,4,1.94,6.69-1.23,2.76-3.78,2.87-6.36,2.87-14.84,0-29.69.12-44.53-.04-3.34-.04-4.45.99-4.15,4.23.23,2.47.15,4.99.02,7.48-.18,3.43-2.16,5.19-5.55,5.26-3.24.07-6.5.19-9.73-.03-2.86-.19-3.81.64-3.79,3.67.15,19.09.09,38.17.1,57.26,0,.75.01,1.5,0,2.25,0,2.37-.68,5.01.15,7.03.94,2.26,4.12,1.36,6.23,2.23,6.54,2.68,10.64,8.75,10.75,16.44q.07,5.38,5.27,5.42c5.96.04,7.49,1.58,7.5,7.48,0,6.24.05,12.47.03,18.71-.02,5.12-1.83,6.91-7,6.91-24.2.01-48.4,0-72.6,0Zm-18.71-243.38h-.06c0,21.7,0,43.4,0,65.1,0,17.96.03,35.91.02,53.87,0,2.13-.03,3.8,3.06,3.77,17.33-.14,34.67-.15,52-.02,3.15.02,2.83-1.68,2.95-3.76.14-2.28-.55-3.02-2.9-2.96-6.48.15-12.97.08-19.45.01-4.18-.04-6.15-2.04-6.15-6.2-.01-63.48-.01-126.95,0-190.43,0-4.26,1.88-6.14,6.1-6.17,6.48-.04,12.97-.11,19.45.04,2.32.05,2.96-.66,2.93-2.96-.12-9.23-.23-18.46.04-27.68.11-3.59-.87-4.63-4.48-4.59-16.46.18-32.92.17-49.38-.01-3.29-.04-4.22.82-4.21,4.14.11,39.28.07,78.56.07,117.85Zm39.88,14.31h-.02c0,28.94.05,57.88-.07,86.81-.02,3.44.64,4.74,4.44,4.59,8.34-.33,16.71-.1,25.07-.11q7.66,0,7.64-7.73c-.02-48.4-.04-96.79-.05-145.19,0-6.72,1.35-8.05,8.08-8.04,18.09,0,36.17-.04,54.26.08,2.64.02,3.45-.71,3.32-3.34-.21-4.23-.01-8.48-.05-12.72-.04-5.49.97-5.03-4.9-5.03-31.18-.03-62.37.06-93.55-.09-3.52-.02-4.27,1.02-4.25,4.32.12,28.81.07,57.63.07,86.44Zm-50.4,18.29h-.08c0-26.07,0-52.15,0-78.22,0-24.2,0-48.4-.04-72.6,0-1.18.6-3.16-.68-3.39-2.53-.46-5.31-.6-7.77.02-1.82.46-.9,2.85-.9,4.35-.04,96.68-.04,193.36-.04,290.05,0,3.99-.02,7.98-.04,11.97,0,1.11-.25,2.13,1.43,2.48,6.5,1.33,8.1.15,8.11-6.45.01-49.4,0-98.8,0-148.2Zm29.92,188.16c-20.69,0-41.38,0-62.07,0-7.43,0-7.49.01-7.37,7.41.09,5.66-.51,4.75,4.82,4.75,41.63.05,83.26.03,124.89.04,8.27,0,8.12.03,8.31-8.33.07-3.08-.76-3.97-3.89-3.95-21.56.14-43.12.07-64.69.08Zm-.34-10.46c17.58,0,35.15.01,52.73-.03,1.12,0,2.53.68,3.25-.97,2.44-5.61-1.36-11.65-7.42-11.66-32.29-.02-64.57,0-96.86,0-1.49,0-2.97,0-4.39.65-3.31,1.52-4.94,5.78-3.56,10.42.87,2.91,3.57,1.51,5.39,1.52,16.95.11,33.91.07,50.86.07Zm9.28-63.85c6.86,0,13.72,0,20.58,0,8.98-.01,8.71-.03,9.11-8.94.18-4.04-1.34-4.79-4.8-4.76-14.46.11-28.93.07-43.4.08-10.08,0-9.99,0-9.95,10.21,0,2.61.78,3.5,3.4,3.46,8.35-.12,16.71-.05,25.06-.04Zm.7,24.08c7.72,0,15.44,0,23.16,0q5.71,0,5.71-5.51c0-1.25-.17-2.52.04-3.73.67-3.82-1.23-4.51-4.57-4.48-14.57.13-29.13.06-43.7.05-9.94,0-9.84-.01-9.83,9.91,0,2.88.77,3.9,3.8,3.83,8.46-.2,16.93-.07,25.4-.07Zm-.21,16.67v.03c8.73,0,17.45-.06,26.18.04,2.25.03,2.89-.61,3.01-2.93.17-3.13-1.32-3.38-3.78-3.37-17.08.05-34.16.02-51.24-.04-2.01,0-3.38.07-3.15,2.73.19,2.16.14,3.7,3.17,3.62,8.6-.22,17.2-.08,25.8-.08Zm97.53-98.12c-2.7-2.61-3.31-5.97-7.09-5.95-9.72.05-19.44.07-29.16-.03-2.17-.02-2.8.74-2.76,2.81.04,1.99.17,3.25,2.76,3.21,8.85-.14,17.69-.04,26.54-.04,2.93,0,5.86,0,9.7,0Zm-.67-83.81c-11.98,0-23.53.07-35.08-.06-2.44-.03-3.13.67-3.19,3.1-.07,2.65,1.25,2.77,3.21,2.76,8.33-.04,16.68-.3,24.99.13,4.71.24,7.81-1.21,10.07-5.93Zm11.23-40.61s-.03,0-.05,0c0,2.61.17,5.23-.05,7.82-.22,2.65,1.29,2.67,3.2,2.78,2.08.12,2.55-.82,2.52-2.64-.07-4.72-.08-9.45-.01-14.17.03-2,.17-3.48-2.78-3.49-2.83,0-3,1.21-2.86,3.36.13,2.1.03,4.22.03,6.33Z"/>
      <path class="cls-1" d="m278.96,6.08c-1.56,25.59-6.17,50.44-17.65,73.65-8.35,16.9-19.8,31.62-31.86,45.97-10.5,12.49-21.3,24.78-29.76,38.84-2.83,4.71-5.18,9.67-5.77,15.21-.74,7.06,2.38,12.81,6.62,18.06,6.86,8.51,14.74,16.29,23.85,21.99,15.25,9.55,20.71,24.11,24.03,40.29,4.62,22.48,6.74,45.23,6.52,68.16-.08,8.55-.24,17.19-2.65,25.54-.45,1.54-.92,3.14-1.77,4.47-1.47,2.29-3.78,2.85-6.22,1.76-2.28-1.03-3.5-3.2-2.79-5.5,4.19-13.63,3.42-27.51,2.7-41.47-.99-19.03-3.41-37.83-7.62-56.4-.71-3.14-1.62-6.24-2.46-9.36-1.66-6.11-5.17-10.71-10.28-14.6-11.1-8.46-21.99-17.24-30.95-28.09-5.95-7.2-10.02-15.18-9.41-24.85.41-6.43,2.69-12.33,5.8-17.91,7.95-14.24,18.49-26.58,28.95-38.95,13.54-16.01,26.74-32.21,35.43-51.54,6.7-14.9,10.89-30.48,12.87-46.67.8-6.53,1.49-13.08,2.23-19.62.4-3.54,2.34-5.28,5.61-5.02,2.96.24,4.83,2.67,4.57,6.05Z"/>
      <path class="cls-1" d="m270.38,142.68c.48,15.84,2.11,33.65,4.91,51.36,2.61,16.51,4.96,33.07,7.7,49.56,2.43,14.67,4.81,29.35,6.44,44.12,1.89,17.2,3.23,34.48.25,51.72-1.17,6.78-3.33,13.23-7.26,18.96-1.79,2.61-4.81,3.34-7.14,1.71-2.43-1.69-3.56-4.03-1.83-6.75,6.95-10.95,7.44-23.24,7.43-35.6-.01-18.08-2.37-35.93-5.27-53.75-3.42-21.03-6.51-42.12-9.89-63.16-2.94-18.31-5.06-36.71-5.64-55.24-.54-17.34.26-34.6,7.89-50.69,7.64-16.12,20.78-23.8,38.33-24.52,7.76-.32,15.38.64,22.93,2.26,3.92.84,5.81,3.08,5.35,6.34-.44,3.13-3.06,4.74-7.15,4.02-6.36-1.13-12.68-2.3-19.2-2.24-17.24.16-28.37,8.25-33.46,24.81-1.27,4.13-2.37,8.37-2.93,12.64-.98,7.4-1.65,14.85-1.47,24.42Z"/>
      <path class="cls-1" d="m330.37,323.54c1.15-26.03,4.23-50.42,7.89-74.76,3.71-24.71,8.25-49.27,12.96-73.81.85-4.43,3.93-6.42,7.37-5.04,2.87,1.15,3.43,3.52,2.98,6.13-1.25,7.19-2.69,14.34-4.02,21.52-3.51,18.89-6.75,37.82-9.58,56.83-2.2,14.73-4.23,29.49-5.62,44.31-1.39,14.85-2.9,29.77-.98,44.71.33,2.56,1.14,5.07,1.85,7.57,1.02,3.6-.09,6.44-3,7.39-2.93.96-5.19-.28-6.64-3.79-2.67-6.46-2.72-13.35-3.16-20.16-.26-4.1-.05-8.22-.05-10.91Z"/>
    </g>
  </g>
</svg>