<?xml version="1.0" encoding="UTF-8"?>
<svg id="Warstwa_2" data-name="Warstwa 2" xmlns="http://www.w3.org/2000/svg" viewBox="0 0 350.74 402.32">
  <defs>
    <style>
      .cls-1 {
        fill: #98cfca;
      }
    </style>
  </defs>
  <g id="Warstwa_1-2" data-name="Warstwa 1">
    <g>
      <path class="cls-1" d="m130.31,0C159.91,0,189.51,0,219.11,0c6.15,0,8.32,2.1,8.32,8.16.01,37.98.01,75.96,0,113.95,0,5.29-2.28,7.54-7.69,7.54-21.9.03-43.79.09-65.68-.03-3.31-.02-4.72.43-4.58,4.29.33,8.8.08,8.81,8.94,8.81,18.52,0,37.04.04,55.55-.05,2.35-.01,3.98.7,5.63,2.37,12.26,12.38,24.95,24.37,36.78,37.15,3.66,3.95,7.29,6.1,12.26,7.64,10.67,3.3,17.17,13.09,17.18,24.34.01,25.55,0,51.09.04,76.64,0,6.59,3.23,11.45,8.63,13.26,8.4,2.82,16.73-2.78,17.32-11.66.05-.81.01-1.62.01-2.43,0-54.34-.03-108.68.08-163.01,0-2.94-.72-4.35-3.49-5.65-6.27-2.93-9.47-8.24-9.53-15.2-.09-10.54-.1-21.09,0-31.63.03-3.61-1.28-6.07-4.45-7.93-5.82-3.42-8.72-8.67-8.54-15.47.1-3.73-.71-7.57,1.14-11.14,2.44-4.69,6.17-7.48,11.55-7.51,13.11-.07,26.22-.08,39.33,0,7.26.04,12.69,5.6,12.79,12.88.03,2.03-.02,4.06.03,6.08.15,6.52-2.61,11.56-8.13,14.85-3.56,2.12-4.97,4.91-4.91,8.97.14,10.27.03,20.55.04,30.82,0,7.03-3.21,12.34-9.42,15.24-3.09,1.44-3.59,3.19-3.59,6.11.06,54.74.04,109.49.05,164.23,0,14.8-11.34,26.2-26.06,26.21-14.37.01-25.77-11.46-25.79-26.07-.04-25.55,0-51.09-.03-76.64,0-7.23-3.85-12.12-10.3-13.61-1.49-.34-2.27-.6-2.9,1.35-1.13,3.48-3.87,4.73-7.58,4.72-30.55-.08-61.1.01-91.64-.13-3.51-.02-4.59.76-4.46,4.42.3,8.69.08,8.7,8.62,8.71,12.17,0,24.33-.02,36.5.02,11.39.03,19.82,8.56,19.83,20.03.02,25.14.02,50.28.03,75.42,0,5.44-2.31,8.3-6.62,8.25-4.06-.04-6.31-2.89-6.31-8.14-.01-24.6,0-49.2-.01-73.8,0-6.72-2.19-8.87-9.03-8.87-45.96,0-91.91,0-137.87,0-6.76,0-8.84,2.15-8.85,9.01,0,24.2,0,48.39,0,72.59,0,1.08.07,2.17-.03,3.24-.34,3.46-3.08,5.96-6.48,5.95-3.76,0-5.61-2.28-6.34-5.62-.28-1.29-.11-2.69-.11-4.04,0-24.47,0-48.93,0-73.4,0-12.3,8.29-20.63,20.51-20.64,13.65-.01,27.3-.06,40.96.06,2.57.02,3.48-.56,3.49-3.33.03-9.77.14-9.78-9.51-9.78-28.66,0-57.31,0-85.97-.01-6.42,0-7.79-2.08-8.56-8.47-1.2-9.93,2.34-17,9.73-23.58,10.48-9.33,20.05-19.69,29.94-29.67,2.13-2.15,4.45-3.15,7.54-3.13,19.73.1,39.47,0,59.2.12,3.07.02,4.19-.59,4.13-3.95-.18-9.16,0-9.16-9.34-9.16-20.14,0-40.28-.02-60.42-.05-5.98,0-8.19-2.09-8.19-7.92-.02-38.12-.01-76.24.01-114.35,0-5.23,2.32-7.36,7.86-7.36C70.56,0,100.43,0,130.31,0Zm-.25,12.9c-26.76,0-53.51.04-80.27-.06-3.02-.01-4.14.57-4.12,3.93.14,32.03.14,64.05.02,96.08-.01,3.24.9,4.01,4.05,4,53.51-.09,107.02-.09,160.53.01,3.29,0,4.33-.74,4.31-4.19-.14-32.03-.14-64.05-.02-96.08.01-3.1-.84-3.79-3.84-3.78-26.89.12-53.78.07-80.67.08Zm.06,181.74c29.6,0,59.21,0,88.81,0,8.38,0,16.76.01,25.14-.03.98,0,2.37.53,2.73-.95.28-1.15.4-2.41-.62-3.42-.77-.76-1.48-1.58-2.24-2.34-9.93-9.94-19.92-19.83-29.77-29.87-1.78-1.82-3.57-2.42-6.03-2.42-52.18.05-104.35.04-156.53-.03-2.2,0-3.77.63-5.32,2.2-10.36,10.47-20.79,20.88-31.25,31.25-1.38,1.37-2.26,2.87-1.57,4.65.71,1.83,2.59.91,3.91.92,37.58.05,75.16.04,112.73.04Zm181.68-106.76h.02c0,5.4-.02,10.8,0,16.2.02,4.93,1.31,6.19,6.22,6.22,5.27.04,6.74-1.26,6.75-6.15.03-10.4,0-20.79.02-31.19.02-7.01,2.89-12.73,8.84-16.29,3.7-2.21,4.34-5.03,4.19-8.77-.07-1.86-.48-2.64-2.5-2.62-11.34.09-22.68.05-34.03.08-1,0-2.09-.29-2.5,1.3-.97,3.72.41,7.34,3.84,9.64,6.03,4.05,9.21,9.64,9.15,16.99-.04,4.86,0,9.72,0,14.58Zm-181.67,132.71h0c3.51.01,7.23.77,10.47-.16,5.44-1.56,1.44-6.47,2.46-9.74.58-1.87.05-3.32-2.6-3.21-4.58.19-9.17.05-13.76.05-9.72.01-9.64.02-9.61,9.64,0,2.54.56,3.66,3.33,3.46,3.22-.23,6.47-.05,9.71-.05Zm-.04-90.89q-6.45,0-6.45,5.42c0,7.61,0,7.66,7.95,7.59,5.95-.05,4.97.93,5.04-6.48.06-6.54.01-6.54-6.54-6.54Z"/>
      <path class="cls-1" d="m130.57,337.4c31.2,0,62.41.16,93.61-.11,7.79-.07,10.15,3.1,9.83,9.68-.36,7.28-.04,14.58-.08,21.88-.02,4.99-2.42,7.33-7.46,7.41q-5.5.09-5.5,5.62c-.01,10.48-7.05,19.06-16.62,20.27-10.15,1.28-19.03-4.89-21.87-15.11-.7-2.54-.47-5.11-.36-7.64.11-2.48-.6-3.26-3.16-3.21-7.7.17-15.4.06-23.1.06-24.45,0-48.9.09-73.35-.09-3.68-.03-4.7,1-4.33,4.5,1.21,11.34-7.46,19.34-15.02,21.16-11.3,2.72-23.55-6.36-23.84-17.99,0-.27,0-.54,0-.81q-.06-6.5-6.35-6.78c-4.05-.18-6.54-2.49-6.59-6.6-.11-8.51-.12-17.02-.01-25.53.06-4.49,2.74-6.7,7.76-6.7,32.15,0,64.3,0,96.45,0Zm-.87,25.95h0c27.43.01,54.86.01,82.29.01,9.03,0,8.89,0,9.07-9.07.06-3.11-.62-4.07-3.95-4.07-56.35.11-112.69.07-169.04.07-8.81,0-8.57.02-8.89,8.82-.14,3.85,1.27,4.32,4.58,4.31,28.65-.12,57.29-.07,85.94-.07Zm72.26,12.92q-6.96.01-6.95,4.42c.01,5.34,2.38,8.54,6.37,8.6,4.25.06,6.29-3.26,6.71-9.17.44-6.24-4.03-3.07-6.13-3.85Zm-143.18-.08c-2.54.78-7.09-2.22-6.61,4.16.43,5.69,2.36,8.89,6.51,8.94,4.15.05,6.16-3.23,6.68-8.8.58-6.31-3.8-3.7-6.58-4.3Z"/>
      <path class="cls-1" d="m129.77,103.8c-23.48-.08-45.74-5.9-66.39-17.82-4.92-2.84-5.86-5.71-3.16-10.68,8.18-15.06,16.42-30.09,24.7-45.09,2.34-4.25,4.56-5.04,9.42-3.65,23.61,6.76,47.23,6.95,70.88.16,5.86-1.68,7.58-1,10.53,4.32,8.11,14.63,16.18,29.29,24.21,43.98,2.85,5.21,2.02,8.07-3.1,11.02-20.65,11.92-42.94,17.68-67.09,17.77Zm1.91-12.89c2.38.27,6.38-.5,10.41-.85,14.62-1.29,28.46-5.32,41.64-11.76,2-.98,2.12-1.82,1.11-3.62-5.9-10.61-11.72-21.26-17.52-31.93-1.06-1.95-2.22-2.41-4.56-1.85-21.72,5.16-43.49,5.33-65.2-.05-2.51-.62-3.65.04-4.78,2.16-5.68,10.57-11.36,21.15-17.32,31.57-1.46,2.55-.51,3.09,1.5,4.05,16.78,8.01,34.47,11.93,54.72,12.29Z"/>
      <path class="cls-1" d="m130.34,176.81c1.21,0,2.45-.16,3.63.03,2.79.44,4.29,2.19,4.21,5.01-.08,2.63-1.58,4.31-4.21,4.57-2.14.21-4.31.06-6.46.07-3.39,0-5.51-1.58-5.39-5.06.11-3.22,2.2-4.71,5.39-4.66.94.01,1.89,0,2.83,0,0,.01,0,.03,0,.04Z"/>
      <path class="cls-1" d="m172.1,186.46c-1.21,0-2.45.16-3.63-.03-2.56-.41-4.13-1.96-4.2-4.62-.07-2.86,1.54-4.61,4.27-4.95,2.26-.28,4.58-.11,6.87-.05,3.27.08,5.05,1.89,4.95,5.09-.1,3.03-1.97,4.57-5.02,4.6-1.08.01-2.16,0-3.24,0,0-.01,0-.02,0-.04Z"/>
      <path class="cls-1" d="m45.76,186.47c-.54,0-1.07,0-1.61,0-4.31-.04-6.41-1.63-6.43-4.84-.01-3.16,2.2-4.82,6.45-4.82,1.48,0,2.95,0,4.43.01,3.2.04,5.2,1.64,5.18,4.85-.02,3.19-1.98,4.82-5.21,4.79-.94,0-1.88,0-2.82,0Z"/>
      <path class="cls-1" d="m162.66,160.59c1.08,0,2.15-.05,3.23.01,3.07.18,4.73,1.97,4.72,4.91-.02,2.99-1.8,4.66-4.85,4.75-2.02.06-4.03.03-6.05,0-3.23-.04-5.16-1.71-5.12-4.91.04-3.22,2.05-4.78,5.26-4.77.94,0,1.88,0,2.82.01Z"/>
      <path class="cls-1" d="m130.09,160.59c5.91,0,8.06,1.26,8.12,4.78.06,3.53-2.22,4.92-8.01,4.91-5.92-.01-8.08-1.29-8.13-4.8-.05-3.55,2.14-4.88,8.01-4.89Z"/>
      <path class="cls-1" d="m87.76,186.48c-.94,0-1.88.04-2.82,0-3.19-.17-5.11-1.9-4.99-5.07.11-2.95,2.06-4.52,5.05-4.6,1.88-.05,3.76,0,5.64,0,3.19-.02,5.25,1.5,5.34,4.7.1,3.45-2.02,5.03-5.41,5-.94-.01-1.88,0-2.82,0h0Z"/>
      <path class="cls-1" d="m97.36,170.25c-1.07,0-2.16.1-3.21-.02-2.78-.33-4.4-1.97-4.48-4.75-.08-2.85,1.67-4.53,4.36-4.83,2.38-.27,4.83-.19,7.23-.01,2.81.21,4.41,1.98,4.46,4.74.05,2.78-1.53,4.51-4.34,4.84-1.32.15-2.68.03-4.02.03h0Z"/>
      <path class="cls-1" d="m194.98,170.26c-.67,0-1.34.01-2.01,0-3.89-.1-6.04-1.86-6.01-4.91.03-3.06,2.17-4.72,6.14-4.75,1.61-.01,3.22-.02,4.83,0,3.25.03,5.13,1.75,5.12,4.91-.01,3.22-2.05,4.77-5.24,4.77-.94,0-1.88,0-2.82,0Z"/>
      <path class="cls-1" d="m214.03,186.43c-1.08,0-2.17.11-3.24-.02-2.83-.34-4.35-2.03-4.35-4.87,0-2.7,1.62-4.33,4.15-4.66,2.26-.29,4.58-.09,6.87-.05,3.18.05,4.75,1.95,4.74,4.87-.01,2.74-1.59,4.53-4.53,4.67-1.21.06-2.43,0-3.64,0v.05Z"/>
      <path class="cls-1" d="m65.22,170.25c-.81,0-1.62,0-2.43,0-3.36.01-5.59-1.57-5.52-4.99.07-3.19,2.25-4.68,5.42-4.67,1.75,0,3.51,0,5.26,0,3.22,0,5.26,1.63,5.31,4.79.05,3.19-1.97,4.84-5.2,4.87-.94,0-1.89,0-2.83,0Z"/>
    </g>
  </g>
</svg>