<?xml version="1.0" encoding="UTF-8"?>
<svg id="Warstwa_2" data-name="Warstwa 2" xmlns="http://www.w3.org/2000/svg" viewBox="0 0 364.57 364.62">
  <defs>
    <style>
      .cls-1 {
        fill: #98cfca;
      }
    </style>
  </defs>
  <g id="Warstwa_1-2" data-name="Warstwa 1">
    <path class="cls-1" d="m364.57,12.82v338.89c-3.34,9.67-10.22,13-20.26,12.92-38.8-.32-77.6-.14-116.4-.14-69.65,0-139.3,0-208.95,0-2.84,0-5.68.1-8.41-.99-6.85-2.73-10.46-8.48-10.46-16.91,0-71.07,0-142.15,0-213.22C.1,94.8.1,56.24,0,17.67-.02,9.66,3.4,4.13,10.71.93,11.23.7,11.68.31,12.16,0c113.2,0,226.4,0,339.6,0,6.35,2.2,10.82,6.27,12.82,12.82Zm-79.91,168.98c-2.79-2.06-3.07-4.62-2.44-7.24,2.89-11.99,2.81-24.11,1.88-36.3-1.5-19.73-2.79-39.47-4.25-59.2-.46-6.27-1.89-12.04-9.05-14.1-1.18-.34-2-1.33-2.59-2.35-.9-1.56-1.6-1.24-2.6-.1-3.05,3.47-6.36,6.69-9.02,10.52-1.86,2.68-2.88,5.17-1.31,8.42.81,1.68.78,3.81-.17,5.52-1.31,2.37-.13,3.59,1.63,4.88,4.36,3.18,7.93,7.11,10.63,11.8,4.62,8.04,3.78,15.57-2.6,21.97-1.3,1.3-1.5,2.22-.34,3.55.85.99,1.68,2,2.44,3.06,5.06,7.06,5.1,16.27.11,22.04q-3.48,4.02-.47,8.16c8.38,11.51,4.14,24.47-9.42,28.74-1.12.35-2.27.83-3.41.84-3.01.03-3.36,1.34-2.08,3.69.28.52.5,1.08.71,1.63,4.5,11.91-1.94,22.38-14.44,24.2-9.41,1.37-17.98-1.06-26.5-4.44-1.43-.57-3.81-2.42-4.32-.9-.86,2.59-4.39,4.15-2.74,7.83,2.17,4.83,1.68,9.71-1.57,14.06-.84,1.12-1.07,1.95-.78,3.47.82,4.16.67,8.35-2.83,11.49-1.19,1.07-.64,2.06-.52,3.2.76,7.07-1.96,11.71-7.82,12.6-3.13.48-6.41.36-9.57.06-2.7-.25-4.33-2.32-4.24-4.91.1-2.73,1.8-4.59,4.77-4.76,1.3-.08,2.62.07,3.91-.06,1.13-.11,2.9.75,3.01-1.39.11-2.28-1.74-1.39-2.84-1.48-2.35-.2-4.73.16-7.06-.5-2.71-.77-3.96-2.54-3.63-5.27.32-2.76,1.97-4.17,4.8-4.17,3.32,0,6.64-.01,9.97-.07,1-.02,2.37.28,2.37-1.35,0-1.65-1.39-1.31-2.38-1.33-3.44-.06-6.88.02-10.32-.1-2.99-.11-6.5-3.51-6.43-6.05.08-2.83,2.45-4.73,6.3-4.82,4.03-.1,8.07-.05,12.1-.08,1.94-.01,3.98.05,4.1-2.69.13-2.97-1.93-2.99-4.07-3.03-4.74-.08-9.5.41-14.21-.32-3.07-.48-5.34-3.7-4.96-6.76.41-3.27,2.66-4.17,5.58-4.16,5.22.01,10.44.03,15.66-.04,2.46-.04,3.94-1.03,3.84-3.9-.1-2.79-1.51-3.81-4-3.85-3.2-.05-6.42.17-9.61-.08-4.81-.38-8.7,1.15-12.85,3.71-11.19,6.93-23.11,11.86-36.83,10.08-12.92-1.67-19.37-12.52-14.45-24.56q1.77-4.33-2.83-5.35c-.34-.08-.72-.02-1.06-.11-7.88-2.23-15.82-8.01-14.65-18.91.48-4.48,2.45-8.38,5.4-11.72,1.66-1.88,2.16-3.2-.2-5.13-3.88-3.17-5.53-7.5-5.27-12.59.25-5.1,2.43-9.31,5.62-13.1,1.47-1.75,1.81-2.99-.19-4.91-5.23-5.02-6.29-11.88-3.49-18.59,2.65-6.35,7.36-10.94,12.54-15.18.74-.6,2.39-.93,1.76-2.27-.97-2.08-.62-4.52-1.68-6.43-4.67-8.4-10.4-16.02-17.57-22.7-1.24,2.54-2.67,4.64-5.34,5.56-4.54,1.56-6.81,5.04-7.29,9.59-.84,8-1.5,16.03-2.09,24.05-.89,12.05-1.66,24.1-2.48,36.16-.79,11.79-1.98,23.54.79,35.31.85,3.6,2.78,7.88-1.47,11.13,1.16.55,2.02.92,2.85,1.36,4.3,2.31,4.76,5.29,1.35,8.79-.57.59-1.28,1.06-1.97,1.51-3.19,2.12-4.81,5-4.91,8.9-.23,8.57,1.55,16.94,2.47,25.39,1.32,12.09,3.32,24.1,4.7,36.19,1.88,16.49,4.97,32.75,8.3,48.98,1.23,5.99,2.63,11.93,4.37,17.8,1.38,4.66-1.35,7.3-6.13,6.13-3.73-.91-6.79.3-9.45,2.75-2.14,1.97-4.35,3-6.96,1.07-2.8-2.08-3.44-4.92-2.09-8.19.49-1.2,1.03-2.39,1.37-3.63,3.32-11.96,2.84-24.17,1.9-36.31-1.27-16.39-2.9-32.77-4.8-49.1-1.85-15.9-3.08-31.97-10.56-46.67-2.41-4.74-1.25-6.7,3.84-7.95,4.9-1.21,8.96-3.9,13.29-6.45-4.16-3.09-8.18-3.27-12.15-.73-2.49,1.59-4.81,2.12-7.03-.15-2.6-2.65-2.83-5.59-.51-8.52,4.26-5.38,7.24-11.39,8.68-18.05,1.76-8.08,2.19-16.36,3.26-24.54,1.95-14.83,2.36-29.74,3.33-44.63.49-7.53-1.9-14.69-3.27-21.98-.72-3.82.62-5.65,4.39-6,1.06-.1,2.11-.34,3.17-.39,5.42-.24,10.03-3.74,15.54-3.56-1.67-7.76-1.64-10.61-.25-14.09,3.28-8.15,13.27-10.44,21.58-8.8,7.05,1.39,13.85,4.01,20.11,7.64,6.97,4.04,13.54,8.58,14.17,17.75.09,1.33.78,1.46,1.92,1.28,5.53-.9,11.06-1.14,16.47.6,1.81.58,2.19.01,2.4-1.72,1.05-8.78,6.94-14.07,15.86-14.45.24,0,.47-.01.71-.02.99-.01,1.95-.05,2.01-1.41.06-1.5-.91-1.7-2.1-1.72-2.13-.03-4.27-.06-6.39-.16-3.04-.15-4.91-1.77-5.13-4.81-.2-2.65,2.13-4.64,5.46-4.83,3.31-.19,6.63-.23,9.94-.35,1.25-.04,2.37-.14,2.29-1.9-.08-1.72-1.19-1.81-2.44-1.81-3.68.01-7.36.13-11.03.03-4.7-.13-6.38-2.02-5.47-6.48.36-1.73.02-2.12-1.5-2.11-.95,0-1.9-.05-2.85-.05-49.48,0-98.95.03-148.43-.09-3.57,0-4.23,1.2-4.23,4.49.08,107.97.07,215.94-.02,323.91,0,2.99.86,3.69,3.75,3.68,43.66-.1,87.32-.08,130.99-.14.94,0,2.07.67,3.15-.5-6.2-3.72-8.43-9.9-10.26-16.28-1.42-4.94-2.86-10.19-6.79-13.44-7.01-5.79-11.46-13.38-16.51-20.6-.81-1.16-1.84-2.17-2.69-3.32-3.19-4.32-5.86-8.84-6.18-14.44-.56-10.02,4.11-17.78,10.67-24.62,4.17-4.35,9.34-7.13,15.47-7.95,9.27-1.24,16.83,2.31,23.66,8.13,5.71,4.86,10.53,10.59,15.92,15.75,6.04,5.78,11.35,5.71,17.42,0,2.16-2.03,4.16-4.22,6.21-6.37,4.67-4.89,9.5-9.6,15.09-13.47,9.34-6.46,21.88-5.91,30.66,1.12,7.2,5.77,10.62,13.64,13.49,22.04,1.79,5.25,1.68,10.11-.87,15.03-5.23,10.09-13.74,17.19-22.37,24.01-3.84,3.03-5.91,6.6-7.04,11.05-.87,3.42-1.48,6.91-2.52,10.27-1.65,5.33-4.6,9.88-9.88,13.54,1.71.08,2.52.15,3.32.15,40.81,0,81.63,0,122.44-.02q4.84,0,4.87-4.94c0-.12,0-.24,0-.36,0-107.73-.02-215.46.06-323.19,0-2.96-.96-3.5-3.62-3.49-47.1.06-94.21.04-141.31.05-3.85,0-3.96.24-2.58,3.73,1.86,4.73,2.39,9.63-.65,13.92-1.57,2.2-2.33,4.09-1.96,6.71.21,1.49-.09,3.07-.3,4.59-.13.96-.29,1.75.49,2.61,2.25,2.46,3.38,5.4,3.09,8.77-.15,1.75.69,2.12,2.13,1.59,3.75-1.38,7.67-1.46,11.57-1.3,1.95.08,2.53-.82,2.65-2.46.31-4.3,2.6-7.47,5.71-10.24,8.29-7.39,18.29-11.53,28.9-13.43,12.11-2.18,25.62,3.92,20.98,20.61-.4,1.42.09,2.26,1.5,2.66,4.76,1.35,9.36,3.24,14.39,3.6,4.91.36,6.24,1.93,4.95,6.62-3.72,13.5-2.82,27.13-1.95,40.85.75,11.81,2.16,23.55,3.25,35.32.64,6.9,1.65,13.78,4.12,20.37,1.82,4.84,4.57,9.06,7.68,13.11,2.23,2.9.23,5.28-1.29,7.34-1.31,1.78-3.58,2.44-5.72.99-4.54-3.08-9.08-3.26-13.93-.09,4.75,2.5,9.06,5.53,14.38,6.73,4.17.94,5.03,3.05,3.56,7.13-.24.67-.45,1.36-.78,1.97-6.8,12.48-7.56,26.41-9.57,40.03-1.42,9.59-2.03,19.28-3.05,28.91-1.79,16.72-4.2,33.4-3.26,50.27.28,5.05,1.08,10.09,3.15,14.81,1.64,3.73,1.13,6.23-1.81,8.47-2.76,2.1-5.07.91-7.26-1.12-2.7-2.51-5.8-3.51-9.48-2.57-4.48,1.14-7.21-1.54-5.92-6.04,5-17.38,8.75-35.04,11.54-52.89,1.84-11.76,3.22-23.59,4.76-35.4,1.39-10.65,2.81-21.3,4.01-31.98.71-6.31,1.94-12.81-4.7-17.32-5.64-3.84-5.43-8.45,1.01-10.84.33-.12.66-.22,1.63-.55Zm-96.6,145.06c3.09.03,6.14,0,9.18-.72,8.82-2.09,18.28-7.23,19.81-19.84.57-4.67-1.03-7.82-5.74-10.71-3.74-2.3-6.14.03-8.36,2.23-3.86,3.83-7.37,8.02-11.16,11.94-3.79,3.92-7.17,3.82-11,.08-3.83-3.74-7.3-7.75-10.24-12.23-1.83-2.79-4.33-4.73-7.77-3.45-4.01,1.49-7.16,4.12-8.25,8.58-1.52,6.17,1.86,13.35,7.94,17.14,7.85,4.88,16.45,6.92,25.59,6.98Zm54.89-205.63c3.35-.04,6.66-.14,9.87-1.03,6.66-1.86,8.43-6.25,4.8-12.1-2.74-4.41-6.69-7.64-11.01-10.41-2.52-1.62-4.64-1.63-6.59,1.18-2.12,3.04-4.42,2.98-6.96.04-.91-1.05-1.83-1.87-3.18-2.01-8.03-.83-15.36-3.72-22.07-8.02-3.41-2.19-5.57.04-7.96,1.44-2.39,1.4-3.13,3.75-2.37,6.48,1.02,3.67,3.34,6.5,6.1,8.97,11.21,10.02,24.58,14.59,39.37,15.47Zm-112.87,0c11.95-.34,24.13-4.72,34.93-12.7,3.97-2.93,7.66-6.37,9.18-11.44.87-2.9.12-5.28-2.35-6.78-2.36-1.43-4.54-3.59-7.95-1.41-8.51,5.45-17.89,8.44-28.07,8.61-1.02.02-1.63.27-2.35,1.1-2.45,2.86-4.32,2.96-7.11.35-1.01-.94-1.57-1.01-2.65-.26-4.05,2.79-7.67,5.99-10.05,10.35-2.73,5-1.26,8.6,4.04,10.62,3.5,1.33,7.14,1.5,12.37,1.56Zm112.12,61.07c6.81-.03,11.16-.89,13.9-2.35,3.75-1.99,4.7-4.58,3.13-8.52-1.4-3.51-3.92-6.16-6.69-8.62-.79-.7-1.61-.77-2.61-.69-15.49,1.24-29.7-2.86-42.88-10.72-2.88-1.72-5.08-1.45-7.34.36-2.39,1.91-2.16,4.55-1.35,7.16.65,2.08,1.88,3.84,3.36,5.38,11.64,12.11,26.36,16.92,40.48,17.99Zm-114.7.03c14.18-.71,27.09-4.99,38.28-13.9,3.07-2.44,5.89-5.2,7.37-8.96,1.03-2.63,1.59-5.37-.92-7.51-2.33-1.98-4.58-2.27-7.6-.48-13.21,7.84-27.47,11.9-42.98,10.59-1.09-.09-1.78.18-2.53.83-2.54,2.19-4.75,4.65-6.21,7.69-2.29,4.79-1.1,7.88,3.82,9.83,3.44,1.37,7.02,2.05,10.76,1.92Zm115.81-30.63c4.86-.11,8.73-.59,12.34-2.21,2.48-1.11,4.47-2.68,4.33-5.84-.27-6.32-6.88-12.29-13.17-11.88-1.65.11-3.3.2-4.95.15-13.05-.41-24.96-4.53-36.1-11.17-4-2.38-7.83-.08-7.85,4.61-.02,4.31,2.58,7.31,5.44,9.99,11.49,10.75,25.47,15.35,39.96,16.34Zm-114.44,0c2.47.07,6.45-.6,10.34-1.51,11.94-2.79,22.88-7.58,31.22-16.99,2.13-2.41,3.85-5.11,3.45-8.62-.45-3.95-4.17-5.9-7.59-3.97-2.37,1.34-4.69,2.77-7.16,3.91-11.54,5.34-23.55,8.37-36.39,7.22-1.23-.11-2.55-.43-3.72.61-2.68,2.39-5.08,4.97-6.43,8.36-1.72,4.32-.65,6.89,3.64,8.8,3.51,1.56,7.24,2.08,12.63,2.2Zm45.61,24.13c-.67.15-.94.13-1.1.26-9.96,8.28-21.44,13.19-34.08,15.73-1.94.39-4.36-.34-5.86,1.87-1.81,2.66-3.49,5.38-4.29,8.52-1.12,4.4.25,7.1,4.33,8.3,2.37.7,4.85,1.13,7.36.81,14.55-1.85,26.59-8.63,36.91-18.8,1.14-1.12,1.31-2.02.51-3.39-2.36-4.04-3.47-8.48-3.79-13.3Zm22.91-.59c-.34,5.5-1.55,10-3.99,14.11-.86,1.44-.24,2.29.81,3.35,5.56,5.61,11.84,10.24,19.01,13.49,7.54,3.42,15.32,6.29,23.89,4.59,2.52-.5,4.88-1.45,5.65-4.2,1.48-5.26-3.77-13.41-9.17-14.48-1.61-.32-3.21-.7-4.8-1.09-11.39-2.75-21.77-7.58-31.39-15.76Zm-58.34-86.59c3.41,1.02,6.32-.28,9.16-1.17,7.89-2.47,15.27-5.93,20.09-13.1,2.83-4.21,1.48-7.44-3.38-8.86-3.83-1.12-7.72-.81-11.61-.61-4.26.21-7.09,1.98-7.4,6.66-.07,1.01-.65,2-1.05,2.98-1.91,4.67-3.84,9.34-5.8,14.09Zm87.59-.61c-2.36-7.41-6.03-14.03-7.65-21.37-.24-1.08-.85-1.9-2.2-1.86-2.71.07-5.43-.36-8.12.27-7.39,1.72-8.77,5.93-3.58,11.49,5.77,6.17,12.97,9.83,21.55,11.48Zm-57.96,259.96h34.99c-11.66-9.63-23.39-9.48-34.99,0Zm45.77-19.2c-3.56.02-5.22,2.5-7.13,4.53-2.72,2.89-2.6,3.28.65,5.53,1.25.87,2.34.91,3.58.16,2.72-1.63,5.47-3.24,8.18-4.9.64-.39,1.76-.91.67-1.82-1.85-1.54-3.34-3.81-5.95-3.51Zm-54.94.18c-3.31-.29-3.92,1.46-4.74,3.04-.89,1.72.4,2.36,1.43,3.07,1.65,1.13,3.34,2.2,5.05,3.23,2.35,1.41,6.77-.03,7.85-2.53.11-.27.16-.81.02-.9-3.42-2.22-6.45-5.14-9.61-5.91Z"/>
  </g>
</svg>