<?xml version="1.0" encoding="UTF-8"?>
<svg id="Warstwa_2" data-name="Warstwa 2" xmlns="http://www.w3.org/2000/svg" viewBox="0 0 383.25 315.11">
  <defs>
    <style>
      .cls-1 {
        fill: #98cfca;
      }
    </style>
  </defs>
  <g id="Warstwa_1-2" data-name="Warstwa 1">
    <g>
      <path class="cls-1" d="m383.25,150.5c-1.33,5.79-1.66,11.73-2.89,17.55-3.82,18.12-11.05,34.73-21.5,49.96-1.35,1.96-1.87,3.88-1.85,6.22.09,12.35.05,24.69.04,37.04,0,8.05-2.79,15.38-9.07,20.07-13.34,9.97-26.65,20.18-42.03,26.96-15.2,6.7-31.13,8-47.52,5.86-12.45-1.63-24.96-2.83-37.44-4.21-1.8-.2-3.24-.1-4.16,2.06-.96,2.26-3.33,3.02-5.68,2.81-17.36-1.54-34.7-3.19-52.05-4.76-6.94-.63-13.89-1.17-20.85-1.69-4.81-.36-6.26-1.48-7.17-6.29-.28-1.46-.97-1.77-2.23-1.89-7.05-.71-14.08-1.85-21.15-2.14-19.74-.81-29.82-16.33-29.21-30.32.56-12.82.07-25.69.18-38.53.02-2.4-.59-3.25-3.1-3.17-5.48.18-10.97.09-16.46.04-4.81-.04-6.68-1.99-6.7-6.89-.02-5.24-.21-10.49.08-15.71.17-3.14-1.01-3.66-3.81-3.63-13.84.13-27.69.07-41.53.06-5.19,0-7.06-1.79-7.09-6.86-.06-7.98-.06-15.96-.04-23.95.01-4.55,2.04-6.57,6.62-6.58,14.59-.02,29.19-.1,43.78.06,3.09.03,3.77-.88,3.44-3.8-6.52-58.29,14.89-103.87,63.06-136.86C134.19,10.07,153.76,3.66,174.48.99,179.39.36,184.38-.03,189.39,0c18.96.12,37.91,0,56.87.05,61.18.15,117.51,44.23,132.44,103.59,1.81,7.22,3.3,14.48,3.85,21.91.06.84.46,1.66.7,2.49v22.46Zm-247.93,11.98c-.31-1.13-.46-1.84-.7-2.52-4.15-11.26-4.75-22.73-2.09-34.4,7.7-33.71,42.65-54.34,75.79-44.62,28.39,8.33,46.66,34.74,43.7,64.25-2.12,21.15-13.09,37.22-31.9,47.56-1.79.98-2.39,2.01-2.39,4.04.09,21.33.11,42.66.03,63.98-.01,2.9.35,3.86,3.65,3,12.22-3.2,23.78-7.82,34.72-14.17,55.27-32.06,78.44-102.16,53.08-160.79C285.61,34.26,228.14,3.02,169.59,13.47c-40.81,7.28-70.98,29.83-90.97,65.99-9.23,16.69-13.7,34.81-14.89,53.78-.55,8.74.45,17.41,1.45,26.07.27,2.3,1.16,3.45,3.77,3.23,3.1-.26,6.23-.1,9.35-.05,1.72.03,2.63.02,2.18-2.42-2.47-13.33-2.72-26.75-.3-40.12,4.22-23.28,14.45-43.51,31.22-60.33.96-.97,1.93-1.89,3.45-2.02,2.59-.22,4.82.37,5.97,2.85,1.46,3.16.12,5.58-2.14,7.99-24.2,25.85-33.11,56.21-26.74,91.09.45,2.46,1.38,3,3.62,2.98,8.85-.1,17.71-.04,26.57-.04,4.32,0,8.64,0,13.2,0ZM249.12,12.24c1.07.56,2.13,1.14,3.22,1.67,54.85,26.75,85.89,85.52,77.03,145.5-3.64,24.69-13.2,46.73-28.63,66.27-1.39,1.77-2.02,3.53-2.01,5.79.09,12.1.22,24.2,0,36.3-.2,10.9,1.96,22.15-5.04,32.72,5.1-1.05,8.98-2.7,12.65-4.72,11.6-6.38,22.2-14.31,33.08-21.78,4.37-3,6.24-7.8,6.34-12.96.2-10.6.02-21.21.09-31.81.02-2.39-.74-2.68-2.89-2.01-7.22,2.26-14.51,4.31-21.75,6.49-1.21.37-2.32.71-3.61.19-2.4-.97-3.99-2.42-4.02-5.22-.03-3.07,1.49-4.86,4.34-5.72,9.01-2.7,18.02-5.45,27.04-8.11,2.12-.63,3.63-1.74,4.89-3.63,10.2-15.3,16.9-31.9,20.14-50.07,3.66-20.54,2.39-40.72-4.05-60.37-12.76-38.91-38.62-65.86-76.57-81.07-12.83-5.14-26.3-7.61-40.26-7.47Zm-42.54,252.55c0-11.84-.06-23.68.05-35.52.02-2.32-.43-3.24-3.02-3.23-19.57.1-39.13.07-58.7,0-2.12,0-2.72.65-2.72,2.74.06,22.06.06,44.12,0,66.18,0,1.77.49,2.38,2.25,2.5,4.22.3,8.41.87,12.63,1.24,15.49,1.36,30.98,2.58,46.45,4.13,2.81.28,3.12-.57,3.11-2.89-.07-11.72-.03-23.43-.04-35.15Zm20.22-91.08c-3.2,0-5.39,0-7.58,0-65.58,0-131.16,0-196.74.01-3.59,0-8.4-1.2-10.46.63-2.38,2.1-.42,7.03-.83,10.7-.33,2.95.71,3.72,3.67,3.71,58.97-.09,117.94,0,176.91-.13,13.2-.03,24.71-4.76,35.02-14.92Zm-6.18-74.09c-1.97-1.35-3.3-2.4-4.76-3.24-19.03-10.87-43.25-7.64-58.86,7.8-14.28,14.13-18.67,35.7-10.87,54.06.78,1.83,1.02,4.36,4.29,4.3,9.72-.18,19.46-.08,29.18-.07,1.57,0,2.23.04,1.84-2.23-3.79-22.55,3.47-40.61,22.52-53.61,4.83-3.3,10.35-5.15,16.66-7.01Zm66.82,141c-1.59,1.32-2.53,2.07-3.44,2.87-18.54,16.2-39.74,27.11-63.93,32-1.93.39-2.33,1.33-2.3,3.08.09,5.61.2,11.23-.02,16.83-.1,2.71.91,3.24,3.39,3.42,6.07.44,12.1,1.42,18.17,1.89,9.67.75,19.24,2.7,28.97,2.56,9.78-.13,18.78-8.28,19.05-18.05.4-14.56.1-29.14.1-44.61Zm-152.37-40.73c-20.06,0-40.13-.03-60.19.02-3.59,0-8.3-1.54-10.47.58-2.35,2.3-.42,7.08-.81,10.75-.31,2.88.59,3.73,3.64,3.72,38.88-.12,77.76-.08,116.64-.08,6.36,0,12.72-.17,19.06.1,3.09.13,3.92-.93,3.67-3.79-.22-2.47-.25-5,0-7.47.32-3.1-.73-3.93-3.87-3.91-22.55.14-45.11.08-67.66.09Zm79.4-37.41h0c5.86.01,11.72-.09,17.58.06,2.16.05,3.45-.56,4.33-2.58,7-16.21,6.01-31.86-3.01-47.06-1.43-2.4-3.21-3.25-5.85-2.71-1.22.25-2.45.41-3.68.59-21.95,3.36-37.17,27.56-30.78,48.82.63,2.08,1.48,3.01,3.83,2.93,5.85-.19,11.72-.06,17.58-.06Zm-124.58,71.79c0,13.02-.43,24.97.15,36.86.4,8.33,6.36,13.83,14.6,14.94,7.89,1.06,15.81,1.86,23.71,2.84,1.84.23,2.75-.09,2.72-2.25-.1-6.73-.07-13.47,0-20.21.01-1.34-.55-2.04-1.65-2.6-14.57-7.37-27.52-16.95-39.52-29.59Zm41.12,17.32c0-7.71-.13-15.03.07-22.34.07-2.77-.94-3.25-3.42-3.21-8.7.13-17.4,0-26.1.05-1.03,0-2.23-.51-3.13.5,6.7,8.29,22.43,20.44,32.58,25Z"/>
      <path class="cls-1" d="m304.86,139.43c-2.22,46.12-22.92,80.61-64.55,101.86-3.56,1.82-6.38,1.08-8.08-1.78-1.63-2.73-.99-5.67,1.7-7.53.81-.56,1.75-.94,2.63-1.4,28.31-14.77,47.07-37.37,53.92-68.67,8.78-40.15-3.09-74.03-34.02-100.81-19.3-16.7-42.4-23.95-67.85-23.54-8.46.14-16.82,1.52-24.98,3.89-2.22.64-4.44,1.05-6.44-.41-1.87-1.36-2.57-3.34-2.19-5.61.42-2.48,2.07-3.91,4.38-4.59,14.36-4.18,28.94-5.52,43.86-3.98,19.74,2.03,37.72,8.66,53.74,20.26,25.38,18.36,40.88,43.02,46.16,73.99,1.03,6.02,1.71,12.07,1.71,18.33Z"/>
      <path class="cls-1" d="m142.19,47.01c-.09,3.13-2.67,5.5-5.87,5.37-2.97-.11-5.32-2.59-5.29-5.58.03-3.2,2.56-5.68,5.67-5.57,3.25.12,5.58,2.57,5.49,5.77Z"/>
    </g>
  </g>
</svg>