<?xml version="1.0" encoding="UTF-8"?>
<svg id="Warstwa_2" data-name="Warstwa 2" xmlns="http://www.w3.org/2000/svg" viewBox="0 0 481.19 491.06">
  <defs>
    <style>
      .cls-1 {
        fill: #98cfca;
      }
    </style>
  </defs>
  <g id="Warstwa_1-2" data-name="Warstwa 1">
    <path class="cls-1" d="m229.61,491.06c-73,0-146.01,0-219.01,0-7.28,0-10.31-1.73-10.24-5.8.06-3.7,3.02-5.23,10.19-5.23,6.98,0,13.97-.14,20.95.05,4.04.11,5.66-1.36,5.59-5.51-.19-10.14-.02-20.29-.07-30.43-.03-7.23,2.42-13.37,7.94-18.08,1.7-1.45,2.52-2.32.38-4.16-25.61-22.02-35.25-51.99-41.24-83.66-3.31-17.52-4.68-35.28-3.9-53.08,1.5-34.4,7.39-67.82,25.63-97.8,9.18-15.09,20.81-27.68,38.97-32.08,4.21-1.02,8.47-1.54,12.84-1.52,17.29.08,34.63.78,51.88-.14,26.46-1.41,44.18,11.53,57.41,32.64,13.51,21.54,20.08,45.51,23.61,70.41.69,4.85,2.01,8.95,5.91,12.13,1.65,1.34,3.36,3,4.18,4.89,2.4,5.55,6.04,5.41,11.24,4.13,18.22-4.49,36.22-9.95,54.9-12.56,21.69-3.03,43.11-1.79,64.35,3.01,19.13,4.33,38.1,9.32,57.41,12.89,21.04,3.9,34.32,16.51,39.56,37.32.69,2.76,2.08,3.94,4.82,3.92,4.66-.03,9.32-.08,13.97.06,8.26.24,14.09,6,14.2,14.28.15,11.47.17,22.95,0,34.42-.14,9.08-5.38,14.1-14.5,14.13-17.63.07-35.26.13-52.88-.05-4.43-.05-7.32,1.26-9.87,5.09-18.64,27.94-37.51,55.73-56.27,83.59-.99,1.47-2.94,3-2.16,4.78.97,2.22,3.54,1.28,5.42,1.29,33.09.05,66.19.03,99.28.04,6.91,0,9.9,1.78,9.72,5.73-.17,3.74-2.98,5.3-9.67,5.3-73.5,0-147.01,0-220.51,0ZM108.22,165.67c-11.21,0-21.31.23-31.38-.06-10.09-.29-18.53,3.4-25.96,9.77-6.75,5.79-12.08,12.79-16.48,20.51-14.31,25.14-20.29,52.68-22.13,81.1-1.36,21.07-.55,42.2,3.85,63.03,4.75,22.48,11.68,44.1,26.12,62.46,7.44,9.46,16.33,17.58,29.01,18.52,10.75.8,21.6.2,32.41.2.96,0,2.22.29,2.71-.73.66-1.38-.76-2.06-1.52-2.8-4.31-4.19-8.16-8.76-11.47-13.77-19.93-30.16-26.52-64.19-28.32-99.46-.87-17.11.06-34.23,2.88-51.18,5.37-32.34,15.13-62.7,40.27-87.59Zm199.25,168.62c-51.23,0-102.46,0-153.69,0-1.66,0-3.33.04-4.99.04-2.67,0-3.97,1.33-3.97,3.99,0,10.48.01,20.96,0,31.44,0,3.13,1.59,4.54,4.64,4.51,1.83-.02,3.66.03,5.49.03,86.49,0,172.99,0,259.48,0,15.8,0,31.6,0,47.41,0,7.37,0,7.4-.05,7.41-7.62.01-8.32.01-16.63,0-24.95-.01-7.39-.05-7.44-7.59-7.44-51.4,0-102.8,0-154.19,0Zm-51.16,51.04c-18.29,0-36.58.13-54.87-.09-4.74-.06-7.55,1.29-9.7,5.77-6.64,13.84-15.64,25.89-28.79,34.31-2.44,1.56-2.64,3.01-.96,5.2,3.08,4.01,3.9,8.66,3.83,13.63-.13,9.81-.06,19.62-.03,29.43.02,6.19.27,6.44,6.52,6.45,25.44.02,50.88-.11,76.32.11,4.77.04,7.5-1.71,10.09-5.56,18.88-28.18,37.97-56.21,56.97-84.31.8-1.18,2.38-2.34,1.58-3.91-.8-1.59-2.67-1-4.09-1.01-18.96-.04-37.91-.02-56.87-.03Zm70.16-62.91c34.91,0,69.82.01,104.73-.01,6.08,0,6.56-.61,4.4-6.33-4.86-12.91-14.34-20.61-27.72-23.18-20.58-3.94-40.89-9.05-61.27-13.82-16.81-3.93-33.93-4.66-51.04-3.2-21.97,1.88-42.91,8.89-64.26,13.88-2.72.64-4.08,1.75-4.11,5.06-.07,8.1-2.16,15.76-6.98,22.49-.93,1.3-2.86,2.55-2.06,4.2.82,1.7,3.01.87,4.58.87,34.58.04,69.16.03,103.73.03Zm-231.53-29.32c-.7-14.84,1.14-29.31,4.97-43.51,4.07-15.05,9.51-29.49,21.13-40.6,9.98-9.54,24.06-10.17,33.93-1.65,5.84,5.04,10.64,10.94,14.09,17.9,4.3,8.68,7.53,17.75,9.59,27.2.69,3.16,2.02,4.45,5.42,4.17,3.62-.3,7.32-.11,10.94.28,3.23.35,3.81-1.05,3.34-3.73-4.58-26.36-12.17-51.58-30.21-72.18-15.37-17.55-34.35-21.03-52.11-5.99-8.47,7.18-14.96,16.01-19.83,25.98-18.12,37.1-22.61,76.44-18.55,117,1.48,14.75,2.08,14.56,15.71,14.46,4.06-.03,5.32-1.21,4.44-5.27-2.42-11.25-3.46-22.65-2.87-34.06Zm10.86-.76c.46,16.4,1.97,31.75,6.51,46.65,3.17,10.4,7.4,20.32,14.56,28.69,1.33,1.55,2.97,3.93,5.19,2.99,1.71-.73.76-3.32.82-5.08.35-10.29-.81-20.63.66-30.87,1.13-7.88,5.97-11.89,13.93-12.25,2.65-.12,5.32-.06,7.98-.05,2.94.01,4.39-.82,2.08-3.69-13.16-16.31-9.93-42.36,8.27-55.18,2.46-1.73,2.85-3.7,2.21-6.44-1.49-6.32-3.19-12.55-5.63-18.58-3.26-8.07-7.02-15.79-13.75-21.68-5.16-4.52-10.15-5.3-16-2.19-6.2,3.3-9.62,9.09-12.77,14.93-10.72,19.86-13.04,41.62-14.06,62.75Zm194.02,187.7c7.48,0,14.98-.32,22.44.11,5.32.31,8.6-1.69,11.48-6,18.68-27.91,37.55-55.69,56.32-83.54,2.79-4.14,2.28-5.22-2.54-5.24-16.96-.07-33.92,0-50.88-.05-2.78,0-4.64,1.09-6.18,3.38-19.49,28.97-39.01,57.92-58.59,86.82-2.39,3.53-1.37,4.58,2.52,4.54,8.48-.08,16.96-.03,25.44-.02Zm-197.93,0c15.79,0,31.58,0,47.37,0,2.83,0,5.48-.1,5.47-3.99-.04-11.14.19-22.28-.16-33.4-.19-6.07-4.02-9.47-10.04-9.48-28.59-.08-57.18-.09-85.76.02-6.38.03-9.77,3.68-9.83,10.05-.09,10.3.15,20.61-.11,30.91-.12,4.7,1.79,6.01,6.19,5.96,15.62-.17,31.25-.07,46.87-.07Zm-9.54-136.62c-1.5,0-2.99-.02-4.49,0-5.91.09-6.25.53-4.82,6.46,2.37,9.89,5.54,19.51,9.66,28.81,5.65,12.76,13.06,24.26,23.65,33.57,12.8,11.26,29.19,11.9,43.04,1.85,8.56-6.21,14.5-14.55,19.94-23.35,2.76-4.46,2.23-5.38-2.98-5.4-12.47-.06-24.94-.09-37.41,0-5.39.04-10.09-1.57-14.37-4.77-9.86-7.36-15.34-17.73-19.86-28.74-3.44-8.4-3.38-8.43-12.36-8.42Zm95.93-21.02c14.94-.02,27.5-12.51,27.37-27.23-.13-14.96-12.71-27.74-27.17-27.6-15.18.15-27.83,12.79-27.67,27.65.16,14.86,12.64,27.2,27.48,27.18Z"/>
    <path class="cls-1" d="m352.91,206.63c-27.44,0-54.88.02-82.32,0-14.52-.02-22.97-8.43-22.98-22.91-.03-37.92-.03-75.83,0-113.75,0-14.88,8.51-23.6,23.4-23.92,12.66-.27,11.52,1.73,11.56-11.96.03-8.65-.06-17.3.04-25.94.06-5.4,2.28-8.29,6.08-8,4.85.37,5.69,3.98,5.72,7.88.07,10.64.19,21.29-.03,31.93-.09,4.5,1.43,6.15,6.03,6.13,34.92-.13,69.85-.13,104.77,0,4.51.02,6.22-1.44,6.13-6.03-.23-10.8-.07-21.62-.06-32.43,0-2.53.09-5.07,2.54-6.66,4.02-2.61,8.34.28,8.42,5.91.15,10.64.05,21.29.07,31.93.01,7.12.08,7.24,7.3,7.17,5.87-.06,11.66.06,16.95,3.08,6.71,3.83,10.68,9.43,10.69,17.33.04,39.91.07,79.82,0,119.74-.03,11.95-8.55,20.43-20.49,20.47-27.94.09-55.88.03-83.81.04Zm-.24-148.75c-26.94,0-53.89-.01-80.83,0-9.05,0-13.06,3.51-13.1,12.5-.15,37.59-.14,75.18,0,112.77.03,8.46,4.38,12.41,12.9,12.42,53.89.04,107.78.05,161.67,0,9.19,0,12.9-3.91,12.91-13.22.02-37.09.02-74.18,0-111.27,0-9.77-3.43-13.18-13.21-13.19-26.78-.02-53.56,0-80.34,0Z"/>
    <path class="cls-1" d="m352.89,77.81c21.45,0,42.91,0,64.36,0,8.14,0,9.02.85,9.03,8.72.02,26.61.02,53.22,0,79.83,0,7.9-1.42,9.31-9.33,9.32-43.07.02-86.15.02-129.22,0-7.6,0-9.15-1.53-9.16-8.99-.02-26.78-.03-53.55,0-80.33,0-7.1,1.41-8.52,8.46-8.54,21.95-.04,43.91-.01,65.86-.02Zm-.22,86.82c18.78,0,37.56-.08,56.34.06,4.39.03,6.43-1.37,6.27-6.02-.23-7.14-.12-14.29-.06-21.44.03-3.13-1.33-4.56-4.49-4.5-4.15.09-8.34.31-12.46-.07-5.49-.5-9.48,1.27-12.85,5.73-3.51,4.65-7.56,4.38-11-.33-2.35-3.21-4.4-6.65-6.5-10.04-1.87-3.03-3.21-2.9-4.44.46-2.57,7.02-5.24,14.01-7.88,21-1.12,2.97-2.83,5.57-6.28,5.55-3.2-.02-4.86-2.49-6.03-5.23-3.25-7.65-6.41-15.33-9.81-22.91-1.38-3.06-1.59-8.16-4.9-8.42-2.61-.2-4.17,4.66-5.81,7.46-2.93,5.01-6.92,7.24-12.74,6.8-4.3-.32-8.64-.08-12.96-.06-6.38.04-6.61.28-6.64,6.87-.02,5.65,0,11.3,0,16.95q0,8.1,7.89,8.11c18.12,0,36.23,0,54.35,0Zm.21-75.78c-18.94,0-37.88.07-56.81-.05-3.96-.02-5.8,1.21-5.67,5.42.21,7.14.18,14.29.01,21.43-.09,3.94,1.6,5.34,5.38,5.19,4.15-.17,8.31-.13,12.46-.01,2.97.08,5.01-1.07,6.6-3.57,2.95-4.62,6.09-9.12,9.13-13.68,1.7-2.55,3.46-4.98,7.05-4.62,3.66.37,4.7,3.32,5.87,6.07,3.25,7.64,6.41,15.32,9.68,22.95.57,1.32.89,3.46,2.45,3.46,1.99,0,2-2.34,2.57-3.81,2.11-5.42,4.1-10.88,6.19-16.3,1.03-2.66,2.1-5.27,5.65-5.5,3.35-.22,5.16,1.7,6.74,4.22,2.74,4.36,5.53,8.68,8.35,12.99,1.09,1.66,2.39,3.05,4.32.98,2.65-2.84,6.08-3.13,9.63-3.14,5.65,0,11.3-.18,16.94.05,4.24.17,6.05-1.33,5.89-5.73-.24-6.8-.27-13.63.01-20.43.19-4.63-1.64-6.04-6.12-5.99-18.77.18-37.54.07-56.32.08Z"/>
  </g>
</svg>