<?xml version="1.0" encoding="UTF-8"?>
<svg id="Warstwa_2" data-name="Warstwa 2" xmlns="http://www.w3.org/2000/svg" viewBox="0 0 120.16 77.7">
  <defs>
    <style>
      .cls-1, .cls-2 {
        stroke: #1d1d1b;
      }

      .cls-1, .cls-2, .cls-3, .cls-4, .cls-5 {
        fill: none;
        stroke-linecap: round;
        stroke-width: 5px;
      }

      .cls-1, .cls-3, .cls-4 {
        stroke-miterlimit: 10;
      }

      .cls-2, .cls-5 {
        stroke-linejoin: round;
      }

      .cls-3, .cls-5 {
        stroke: #c0daf2;
      }

      .cls-4 {
        stroke: #fff;
      }
    </style>
  </defs>
  <g id="Warstwa_1-2" data-name="Warstwa 1">
    <path class="cls-1" d="m49.33,23.17c2.1-3.74,8.98-14.85,22.47-19.08,1.63-.51,5.69-1.59,10.51-1.59,19.52,0,35.35,15.83,35.35,35.35s-15.83,35.35-35.35,35.35c-4.93,0-9.11-1.14-10.51-1.59-13.13-4.21-19.61-15.23-21.44-18.62"/>
    <path class="cls-4" d="m46.33,25.17c2.1-3.74,8.98-14.85,22.47-19.08,1.63-.51,5.69-1.59,10.51-1.59,19.52,0,35.35,15.83,35.35,35.35s-15.83,35.35-35.35,35.35c-4.93,0-9.11-1.14-10.51-1.59-13.13-4.21-19.61-15.23-21.44-18.62"/>
    <path class="cls-1" d="m62.18,23.9c4.43-6.41,11.83-10.6,20.21-10.6,13.56,0,24.55,10.99,24.55,24.55s-10.99,24.55-24.55,24.55c-7.82,0-14.78-3.65-19.28-9.35"/>
    <path class="cls-4" d="m59.18,25.41c4.43-6.41,11.83-10.6,20.21-10.6,13.56,0,24.55,10.99,24.55,24.55s-10.99,24.55-24.55,24.55c-7.82,0-14.78-3.65-19.28-9.35"/>
    <line class="cls-1" x1="5.5" y1="51.63" x2="81.94" y2="51.63"/>
    <line class="cls-4" x1="2.5" y1="53.63" x2="78.94" y2="53.63"/>
    <circle class="cls-1" cx="74.64" cy="37.85" r="7.48"/>
    <circle class="cls-3" cx="71.64" cy="39.36" r="7.48"/>
    <path class="cls-2" d="m60.61,43.03c0,1.43-.72,2.72-1.88,3.66-1.16.94-2.76,1.52-4.53,1.52h-29.2c-1.29,0-2.34-.85-2.34-1.89v-6.58c0-1.04,1.05-1.89,2.34-1.89h29.2c3.54,0,6.41,2.32,6.41,5.19Z"/>
    <path class="cls-5" d="m57.61,45.03c0,1.43-.72,2.72-1.88,3.66-1.16.94-2.76,1.52-4.53,1.52h-29.2c-1.29,0-2.34-.85-2.34-1.89v-6.58c0-1.04,1.05-1.89,2.34-1.89h29.2c3.54,0,6.41,2.32,6.41,5.19Z"/>
  </g>
</svg>